<?xml version="1.0" encoding="UTF-8"?>
<svg width="135px" height="135px" viewBox="0 0 135 135" version="1.1" xmlns="http://www.w3.org/2000/svg" xmlns:xlink="http://www.w3.org/1999/xlink">
    <!-- Generator: sketchtool 51.3 (57544) - http://www.bohemiancoding.com/sketch -->
    <title>8895DC57-5C38-4BCD-8161-275B41E876C4</title>
    <desc>Created with sketchtool.</desc>
    <defs></defs>
    <g id="Lettering" stroke="none" stroke-width="1" fill="none" fill-rule="evenodd">
        <g id="A4" transform="translate(-345.000000, -796.000000)">
            <g id="n" transform="translate(345.000000, 796.000000)">
                <ellipse id="Oval" fill="#A5D6A7" cx="67.0036765" cy="67.5" rx="67.0036765" ry="67.5"></ellipse>
                <path d="M105.500217,12.2460523 C94.6079112,4.53010763 81.3309355,0 67.0036765,0 C52.7761475,0 39.5843311,4.46726021 28.7349416,12.085387 L105.500217,123 L105.500217,12.2460523 Z" id="Oval" fill="#4CAF50"></path>
                <path d="M28.7692416,12.0613185 C11.3805626,24.2549553 0,44.5385965 0,67.5 C0,90.5241874 11.442884,110.855949 28.9120153,123.038524 L28.7692416,12.0613185 Z" id="Oval" fill="#4CAF50"></path>
                <path d="M133.98983,12 C116.601151,24.1936369 105.220588,44.4772781 105.220588,67.4386815 C105.220588,90.462869 116.663472,110.79463 134.132603,122.977206 L133.98983,12 Z" id="Oval" fill="#A5D6A7" transform="translate(119.676596, 67.488603) scale(-1, 1) translate(-119.676596, -67.488603) "></path>
            </g>
        </g>
    </g>
</svg>