<?xml version="1.0" encoding="UTF-8"?>
<svg width="135px" height="135px" viewBox="0 0 135 135" version="1.1" xmlns="http://www.w3.org/2000/svg" xmlns:xlink="http://www.w3.org/1999/xlink">
    <!-- Generator: sketchtool 51.3 (57544) - http://www.bohemiancoding.com/sketch -->
    <title>DAA54B49-A9E1-465E-93C6-CF8DEAB6DAD9</title>
    <desc>Created with sketchtool.</desc>
    <defs></defs>
    <g id="Lettering" stroke="none" stroke-width="1" fill="none" fill-rule="evenodd">
        <g id="A4" transform="translate(-837.000000, -1023.000000)">
            <g id="t" transform="translate(837.000000, 1023.000000)">
                <circle id="Oval" fill="#B39DDB" cx="67.5" cy="67.5" r="67.5"></circle>
                <path d="M44.0112716,4.19909847 C18.3122023,13.7387981 0,38.4808771 0,67.5 C0,96.517883 18.3106374,121.259087 44.0079773,130.799679 L44.0112716,4.19909847 Z" id="Path" fill="#673AB7"></path>
                <path d="M92.0040716,130.414605 C117.16878,120.606263 135,96.1354839 135,67.5 C135,38.8650264 117.169415,14.394609 92.0054171,4.5859192 L92.0040716,130.414605 Z" id="Path" fill="#673AB7"></path>
                <path d="M89.3059259,-41.2946542 C63.6068565,-31.7549546 45.2946542,-7.01287564 45.2946542,22.0062473 C45.2946542,51.0241303 63.6052916,75.7653347 89.3026315,85.3059259 L89.3059259,-41.2946542 Z" id="Path" fill="#B39DDB" transform="translate(67.300290, 22.005636) rotate(90.000000) translate(-67.300290, -22.005636) "></path>
            </g>
        </g>
    </g>
</svg>