<?xml version="1.0" encoding="UTF-8"?>
<svg width="135px" height="135px" viewBox="0 0 135 135" version="1.1" xmlns="http://www.w3.org/2000/svg" xmlns:xlink="http://www.w3.org/1999/xlink">
    <!-- Generator: sketchtool 51.3 (57544) - http://www.bohemiancoding.com/sketch -->
    <title>85ABB26A-31BB-444B-BE99-B824578046BC</title>
    <desc>Created with sketchtool.</desc>
    <defs></defs>
    <g id="Lettering" stroke="none" stroke-width="1" fill="none" fill-rule="evenodd">
        <g id="A4" transform="translate(-99.000000, -1252.000000)">
            <g id="u" transform="translate(99.000000, 1252.000000)">
                <g id="i" transform="translate(92.000000, 4.000000)"></g>
                <circle id="Oval" fill="#CE93D8" cx="67.5" cy="67.5" r="67.5"></circle>
                <path d="M0,67.5 C0,104.779221 30.2207794,135 67.5,135 C104.779221,135 135,104.779221 135,67.5" id="Oval" fill="#9C27B0"></path>
                <path d="M44.0112716,4.19909847 C18.3122023,13.7387981 0,38.4808771 0,67.5 C0,96.517883 18.3106374,121.259087 44.0079773,130.799679 L44.0112716,4.19909847 Z" id="Path" fill="#9C27B0"></path>
                <path d="M92.0040716,130.414605 C117.16878,120.606263 135,96.1354839 135,67.5 C135,38.8650264 117.169415,14.394609 92.0054171,4.5859192 L92.0040716,130.414605 Z" id="Path" fill="#9C27B0"></path>
                <circle id="Oval" fill="#CE93D8" cx="68" cy="68" r="24"></circle>
            </g>
        </g>
    </g>
</svg>