<?xml version="1.0" encoding="UTF-8"?>
<svg width="135px" height="135px" viewBox="0 0 135 135" version="1.1" xmlns="http://www.w3.org/2000/svg" xmlns:xlink="http://www.w3.org/1999/xlink">
    <!-- Generator: sketchtool 51.3 (57544) - http://www.bohemiancoding.com/sketch -->
    <title>B94F704F-11EE-409F-8603-E74B21AA8F22</title>
    <desc>Created with sketchtool.</desc>
    <defs></defs>
    <g id="Lettering" stroke="none" stroke-width="1" fill="none" fill-rule="evenodd">
        <g id="A4" transform="translate(-590.000000, -1252.000000)">
            <g id="w" transform="translate(657.500000, 1319.500000) scale(1, -1) translate(-657.500000, -1319.500000) translate(590.000000, 1252.000000)">
                <ellipse id="Oval" fill="#80CBC4" cx="67.0036765" cy="67.5" rx="67.0036765" ry="67.5"></ellipse>
                <path d="M105.500217,12.2460523 C94.6079112,4.53010763 81.3309355,0 67.0036765,0 C52.7761475,0 39.5843311,4.46726021 28.7349416,12.085387 L67.0036765,44 L105.500217,12.2460523 Z" id="Oval" fill="#009688"></path>
                <path d="M28.7692416,12.0613185 C11.3805626,24.2549553 0,44.5385965 0,67.5 C0,90.5241874 11.442884,110.855949 28.9120153,123.038524 L28.7692416,12.0613185 Z" id="Oval" fill="#009688"></path>
                <path d="M105.363362,12 C122.752041,24.1936369 134.132603,44.4772781 134.132603,67.4386815 C134.132603,90.462869 122.689719,110.79463 105.220588,122.977206 L105.363362,12 Z" id="Oval" fill="#009688"></path>
            </g>
        </g>
    </g>
</svg>