<?xml version="1.0" encoding="UTF-8"?>
<svg width="135px" height="135px" viewBox="0 0 135 135" version="1.1" xmlns="http://www.w3.org/2000/svg" xmlns:xlink="http://www.w3.org/1999/xlink">
    <!-- Generator: sketchtool 51.3 (57544) - http://www.bohemiancoding.com/sketch -->
    <title>B1BD93BE-D51C-402D-819F-730A79760C14</title>
    <desc>Created with sketchtool.</desc>
    <defs></defs>
    <g id="Lettering" stroke="none" stroke-width="1" fill="none" fill-rule="evenodd">
        <g id="A4" transform="translate(-590.000000, -1480.000000)">
            <g id="z" transform="translate(657.500000, 1547.500000) scale(-1, 1) translate(-657.500000, -1547.500000) translate(590.000000, 1480.000000)">
                <circle id="Oval" fill="#B39DDB" cx="67.5" cy="67.5" r="67.5"></circle>
                <path d="M105.845768,123.057933 C123.460102,110.877551 135,90.5364192 135,67.5 C135,44.5069006 123.503463,24.1989613 105.945075,12.0108684 L29,12.0108684 L105.845768,123.057933 Z" id="Oval" fill="#673AB7"></path>
                <path d="M29.0700018,122.999594 C33.6634945,126.186305 38.6715965,128.817398 43.9970572,130.795623 C51.3160864,133.51439 59.2345518,135 67.5,135 C75.8003374,135 83.7507565,133.501822 91.0955935,130.761129 C96.3794337,128.789488 101.349867,126.174809 105.911709,123.012278 L29.0700018,122.999594 Z" id="Oval" fill="#673AB7"></path>
                <path d="M29,0 C33.5934927,3.1867111 38.6015947,5.81780437 43.9270554,7.79602921 C51.2460846,10.514796 59.16455,12.000406 67.4299982,12.000406 C75.7303356,12.000406 83.6807547,10.5022277 91.0255917,7.76153488 C96.3094319,5.78989373 101.279866,3.17521479 105.841707,0.0126837645 L29,0 Z" id="Oval" fill="#B39DDB" transform="translate(67.420853, 6.000203) scale(1, -1) translate(-67.420853, -6.000203) "></path>
            </g>
        </g>
    </g>
</svg>